<svg width="100%" height="100%" viewBox="0 0 149 30" fill="none" xmlns="http://www.w3.org/2000/svg">
    <g clip-path="url(#clip0_171_3953)">
        <circle cx="15" cy="15" r="15" fill="#00AEEF"/>
        <path d="M50.0949 7.28564L53.0583 18.2856L55.5983 7.28564H60.396L55.7394 24.5714H51.0827L48.1194 13.8571L45.1561 24.5714H40.4994L36.125 7.28564H40.9228L43.4627 18.2856L46.4261 7.28564H50.0949ZM104.846 19.4285V24.5714H100.613V7.28564H104.846V15.9999H106.821L109.502 11.4285H114.018L110.349 17.7142L114.724 24.4285H109.926L106.68 19.2856H104.846V19.4285ZM134.902 24.5714C133.773 24.7142 132.786 24.8571 131.798 24.8571C130.81 24.8571 129.964 24.5714 129.399 23.8571C128.694 23.1428 128.411 22.2856 128.411 21.1428V7.28564H132.645V20.4285C132.645 20.7142 132.786 20.8571 132.927 20.9999C133.068 21.1428 133.35 21.2856 133.491 21.2856H134.479L134.902 24.5714ZM63.9238 14.5714C63.5004 14.8571 63.3593 15.1428 63.3593 15.7142V16.7142H67.7338V15.7142C67.7338 15.1428 67.5926 14.8571 67.1693 14.7142C66.746 14.4285 66.0404 14.2856 65.6171 14.2856C65.1938 14.2856 64.4882 14.2856 63.9238 14.5714ZM60.6782 12.9999C62.0893 11.5714 64.0649 11.2856 65.7582 11.2856C67.4515 11.2856 69.1449 11.5714 70.2738 12.7142C71.5437 13.9999 71.6849 15.4285 71.6849 16.9999V19.7142H63.5004C63.5004 20.7142 63.6416 20.8571 64.4882 21.2856C65.0527 21.5714 65.8993 21.5714 66.6049 21.5714C68.1571 21.5714 69.7093 21.2856 70.8382 20.9999L71.2615 23.9999C69.5682 24.5714 67.8749 24.8571 66.1815 24.8571C63.0771 24.8571 60.2549 23.7142 59.4082 20.7142C59.126 19.8571 59.126 18.8571 59.126 17.9999C59.126 15.9999 59.126 14.5714 60.6782 12.9999ZM76.7648 16.4285V20.9999C77.3293 21.1428 78.0348 21.1428 78.5993 21.1428C81.4215 21.1428 81.5626 19.8571 81.5626 17.5714C81.5626 15.9999 80.9982 14.8571 79.4459 14.8571C78.4582 14.8571 77.4704 15.2856 76.7648 15.5714V16.4285ZM72.5315 7.28564H76.7648V12.2856C78.0348 11.5714 79.1637 11.4285 80.5748 11.4285C81.9859 11.4285 83.2559 11.8571 83.9615 12.7142C85.6548 14.4285 85.6548 16.1428 85.6548 18.1428C85.6548 22.4285 82.6915 24.7142 78.4582 24.7142C77.3293 24.7142 73.3782 24.4285 72.3904 24.1428V7.28564H72.5315ZM114.582 11.5714H118.816V19.4285C118.816 20.9999 119.38 21.2856 120.65 21.2856C121.638 21.2856 122.626 20.5714 123.331 20.1428V11.5714H127.565V21.2856C127.565 22.4285 127.565 23.5714 127.847 24.5714H124.178L123.755 23.2856C121.92 24.4285 120.791 24.8571 118.957 24.8571C115.147 24.8571 114.724 22.4285 114.724 19.2856V11.5714H114.582ZM143.933 20.7142V19.2856H141.393C140.406 19.2856 139.559 19.5714 139.559 20.4285C139.559 21.1428 139.841 21.7142 141.111 21.7142C142.24 21.8571 143.228 21.2856 143.933 20.7142ZM136.031 12.1428C138.007 11.5714 140.547 10.9999 142.663 10.9999C144.216 10.9999 146.332 11.2856 147.32 12.4285C148.308 13.4285 148.308 14.5714 148.308 16.1428C148.308 17.8571 148.167 19.4285 148.167 20.9999C148.167 21.7142 148.167 22.2856 148.167 22.9999C148.167 23.4285 148.308 24.2856 148.308 24.5714H144.639L144.216 23.2856C142.946 24.1428 141.393 24.8571 139.982 24.8571C136.737 24.8571 135.043 23.8571 135.043 20.5714C135.043 17.4285 137.442 16.2856 140.547 16.2856C141.817 16.2856 142.805 16.2856 143.792 16.2856V15.7142C143.792 14.5714 142.946 14.4285 141.535 14.4285C139.559 14.4285 138.148 14.8571 136.455 15.2856L136.031 12.1428ZM95.1092 20.7142V19.2856H92.5692C91.5814 19.2856 90.7348 19.5714 90.7348 20.4285C90.7348 21.1428 91.017 21.7142 92.287 21.7142C93.4159 21.8571 94.4037 21.2856 95.1092 20.7142ZM87.3481 12.1428C89.3237 11.5714 91.8637 10.9999 93.9803 10.9999C95.5325 10.9999 97.6492 11.2856 98.637 12.4285C99.6248 13.4285 99.6247 14.5714 99.6247 16.1428C99.6247 17.8571 99.4836 19.4285 99.4836 20.9999C99.4836 21.7142 99.4836 22.2856 99.4836 22.9999C99.4836 23.4285 99.6247 24.2856 99.6247 24.5714H95.9559L95.5325 23.2856C94.2625 24.1428 92.7103 24.8571 91.2992 24.8571C88.0537 24.8571 86.3604 23.8571 86.3604 20.5714C86.3604 17.4285 88.7592 16.2856 91.8637 16.2856C93.1337 16.2856 94.1214 16.2856 95.1092 16.2856V15.7142C95.1092 14.5714 94.2626 14.4285 92.8514 14.4285C90.8759 14.4285 89.4648 14.8571 87.7715 15.2856L87.3481 12.1428Z" fill="black"/>
        <path d="M15 0C6.71429 0 0 6.71429 0 15C0 23.2857 6.71429 30 15 30C23.2857 30 30 23.2857 30 15C30 6.71429 23.2857 0 15 0ZM24.7143 19.5714L24.2857 18.2857C22.7143 13.5714 18.1429 10 12.8571 10C11.5714 10 10.4286 10.1429 9.28571 10.5714C10 12.1429 10.7143 13.8571 10.7143 16C10.7143 19.2857 10.1429 22 6.85714 22C5.28571 20.1429 4.28571 17.7143 4.28571 15C4.28571 9.14286 9.14286 4.28571 15 4.28571C20.8571 4.28571 25.7143 9.14286 25.7143 15C25.7143 16.7143 25.4286 18.2857 24.7143 19.5714Z" fill="black"/>
    </g>
    <defs>
        <clipPath id="clip0_171_3953">
            <rect width="148.448" height="30" fill="white"/>
        </clipPath>
    </defs>
</svg>
